<svg xmlns="http://www.w3.org/2000/svg" width="251" height="163.592" viewBox="0 0 251 163.592">
  <g id="Group_1137" data-name="Group 1137" transform="translate(-374 -829.51)">
    <path id="Path_2814" data-name="Path 2814" d="M625.4,60.13c-6.338,0-19.823,13.256-43.619,12.19s-27.488-16.455-51.562-16.455S497.157,72.32,466.671,72.32s-36.007-17.3-52.959-20.814S384.4,60.13,374.4,60.13" transform="translate(-0.396 785.137)" fill="none" stroke="#fff" stroke-width="13"/>
    <path id="Path_2818" data-name="Path 2818" d="M625.4,60.13c-6.338,0-19.823,13.256-43.619,12.19s-27.488-16.455-51.562-16.455S497.157,72.32,466.671,72.32s-36.007-17.3-52.959-20.814S384.4,60.13,374.4,60.13" transform="translate(-0.396 828.166)" fill="none" stroke="#fff" stroke-width="13"/>
    <path id="Path_2819" data-name="Path 2819" d="M625.4,60.13c-6.338,0-19.823,13.256-43.619,12.19s-27.488-16.455-51.562-16.455S497.157,72.32,466.671,72.32s-36.007-17.3-52.959-20.814S384.4,60.13,374.4,60.13" transform="translate(-0.396 914.223)" fill="none" stroke="#fff" stroke-width="13"/>
    <path id="Path_2820" data-name="Path 2820" d="M625.4,60.13c-6.338,0-19.823,13.256-43.619,12.19s-27.488-16.455-51.562-16.455S497.157,72.32,466.671,72.32s-36.007-17.3-52.959-20.814S384.4,60.13,374.4,60.13" transform="translate(-0.396 871.194)" fill="none" stroke="#fff" stroke-width="13"/>
  </g>
</svg>
