<svg xmlns="http://www.w3.org/2000/svg" width="80.661" height="51.351" viewBox="0 0 80.661 51.351">
  <g id="Group_1080" data-name="Group 1080" transform="translate(-374 -834.546)">
    <path id="Path_2814" data-name="Path 2814" d="M455.057,53.843c-2.037,0-6.37,4.26-14.017,3.917s-8.834-5.288-16.57-5.288-10.623,5.288-20.42,5.288-11.571-5.559-17.019-6.689-9.42,2.772-12.635,2.772" transform="translate(-0.396 785.137)" fill="none" stroke="#000" stroke-width="3"/>
    <path id="Path_2818" data-name="Path 2818" d="M455.057,53.843c-2.037,0-6.37,4.26-14.017,3.917s-8.834-5.288-16.57-5.288-10.623,5.288-20.42,5.288-11.571-5.559-17.019-6.689-9.42,2.772-12.635,2.772" transform="translate(-0.396 798.965)" fill="none" stroke="#000" stroke-width="3"/>
    <path id="Path_2819" data-name="Path 2819" d="M455.057,53.843c-2.037,0-6.37,4.26-14.017,3.917s-8.834-5.288-16.57-5.288-10.623,5.288-20.42,5.288-11.571-5.559-17.019-6.689-9.42,2.772-12.635,2.772" transform="translate(-0.396 826.62)" fill="none" stroke="#000" stroke-width="3"/>
    <path id="Path_2820" data-name="Path 2820" d="M455.057,53.843c-2.037,0-6.37,4.26-14.017,3.917s-8.834-5.288-16.57-5.288-10.623,5.288-20.42,5.288-11.571-5.559-17.019-6.689-9.42,2.772-12.635,2.772" transform="translate(-0.396 812.792)" fill="none" stroke="#000" stroke-width="3"/>
  </g>
</svg>
