<svg xmlns="http://www.w3.org/2000/svg" width="36.967" height="25.146" viewBox="0 0 36.967 25.146">
  <g id="Group_1079" data-name="Group 1079" transform="translate(-374 -834.523)">
    <path id="Path_2814" data-name="Path 2814" d="M411.342,52.23c-.933,0-2.918,1.951-6.421,1.794s-4.046-2.422-7.59-2.422-4.866,2.422-9.353,2.422-5.3-2.546-7.8-3.064-4.315,1.27-5.787,1.27" transform="translate(-0.396 785.137)" fill="none" stroke="#000" stroke-width="3"/>
    <path id="Path_2818" data-name="Path 2818" d="M411.342,52.23c-.933,0-2.918,1.951-6.421,1.794s-4.046-2.422-7.59-2.422-4.866,2.422-9.353,2.422-5.3-2.546-7.8-3.064-4.315,1.27-5.787,1.27" transform="translate(-0.396 791.471)" fill="none" stroke="#000" stroke-width="3"/>
    <path id="Path_2819" data-name="Path 2819" d="M411.342,52.23c-.933,0-2.918,1.951-6.421,1.794s-4.046-2.422-7.59-2.422-4.866,2.422-9.353,2.422-5.3-2.546-7.8-3.064-4.315,1.27-5.787,1.27" transform="translate(-0.396 804.138)" fill="none" stroke="#000" stroke-width="3"/>
    <path id="Path_2820" data-name="Path 2820" d="M411.342,52.23c-.933,0-2.918,1.951-6.421,1.794s-4.046-2.422-7.59-2.422-4.866,2.422-9.353,2.422-5.3-2.546-7.8-3.064-4.315,1.27-5.787,1.27" transform="translate(-0.396 797.804)" fill="none" stroke="#000" stroke-width="3"/>
  </g>
</svg>
