<svg xmlns="http://www.w3.org/2000/svg" width="78.881" height="100" viewBox="0 0 78.881 100">
  <g id="icon-happy-1820913" transform="translate(-198.714 -151.084)">
    <path id="Path_2848" data-name="Path 2848" d="M277.516,246.458l-2.734-10.2a17.639,17.639,0,0,0-14.827-13.145l-6.414-.841-1.893-5.574a26.614,26.614,0,0,0,10.621-15.88c1.788-.946,4.732-3.365,4.732-9.464,0-4.417-.736-7.046-2.208-8.518a4.61,4.61,0,0,0-2.945-1.472,80.871,80.871,0,0,0,1.262-13.25c-.21-6.941-3.576-11.358-8.939-9.675-7.573-4.943-18.509-8.939-30.919-6.73.21.736.946,2.945,1.157,4.1a16.084,16.084,0,0,0-7.887-1.578,18.59,18.59,0,0,0-.316,10.831c-1.051,3.155-1.788,10.306-1.578,16.405a4.641,4.641,0,0,0-3.05,1.367c-1.578,1.472-2.313,4.206-2.313,8.623,0,6.1,2.945,8.518,4.732,9.464A26.931,26.931,0,0,0,224.62,216.8l-1.893,5.574-6.309.841a17.513,17.513,0,0,0-14.827,13.145l-2.734,10.2a3.569,3.569,0,0,0,3.47,4.522h71.719a3.538,3.538,0,0,0,2.839-1.367,4.591,4.591,0,0,0,.631-3.259Zm-59.731-47.533a2.156,2.156,0,0,0-1.578-1.683c-.316-.1-2.839-.946-2.839-5.889,0-4.312.736-5.363,1.157-5.679a.522.522,0,0,0,.316-.1,23.544,23.544,0,0,0,.526,3.26,1.01,1.01,0,0,0,.946.736H218a.909.909,0,0,0,.946-1.051c-.21-2.734-.421-9.99,3.471-16.089,5.468,2.418,16.089,7.151,31.128.1,3.891,5.153,3.786,13.145,3.576,15.984a1.037,1.037,0,0,0,.946,1.051h1.367a.859.859,0,0,0,.946-.841c.1-.736.316-1.893.631-3.26.21,0,.526,0,.631.21.21.21,1.051,1.262,1.051,5.574,0,4.943-2.629,5.784-2.839,5.889a2.013,2.013,0,0,0-1.578,1.683c-2,10.411-10.411,17.982-20.3,17.982-9.674.1-18.192-7.467-20.19-17.877Zm20.4,22.189a22.754,22.754,0,0,0,9.885-2.313l1.893,5.468a19.878,19.878,0,0,1-23.556,0L228.3,218.8a23.578,23.578,0,0,0,9.886,2.313Z"/>
    <path id="Path_2849" data-name="Path 2849" d="M320.17,298.115a.8.8,0,0,1,.21.526l-.316,2.629c-.1.526.421.841.946.631l2.313-1.051a.47.47,0,0,1,.526,0l2.313,1.051a.711.711,0,0,0,.946-.631l-.314-2.629c0-.21,0-.421.21-.526l1.788-1.893a.653.653,0,0,0-.316-1.051l-2.733-.526c-.21,0-.316-.1-.421-.316l-1.262-2.313a.687.687,0,0,0-1.157,0l-1.262,2.313c-.1.21-.21.316-.421.316l-2.524.526a.6.6,0,0,0-.316,1.051Z" transform="translate(-92.92 -109.392)"/>
    <path id="Path_2850" data-name="Path 2850" d="M387.9,298.115a.8.8,0,0,1,.21.526l-.316,2.629c-.1.526.421.841.946.631l2.313-1.051a.47.47,0,0,1,.526,0l2.313,1.051a.711.711,0,0,0,.946-.631l-.316-2.629c0-.21,0-.421.21-.526l1.788-1.893a.653.653,0,0,0-.316-1.051l-2.732-.526c-.21,0-.316-.1-.421-.316l-1.262-2.313a.687.687,0,0,0-1.157,0l-1.262,2.313c0,.211-.209.316-.42.316l-2.524.526a.6.6,0,0,0-.316,1.051Z" transform="translate(-145.611 -109.392)"/>
    <path id="Path_2851" data-name="Path 2851" d="M328.6,357.8a2.267,2.267,0,0,0-.526,1.788,10.811,10.811,0,0,0,21.453,0,2.267,2.267,0,0,0-.526-1.788,2.093,2.093,0,0,0-1.683-.736H330.287a2.481,2.481,0,0,0-1.682.736Zm17.772,3.785H331.023a7.146,7.146,0,0,1-.736-2.1h16.826a7.145,7.145,0,0,1-.736,2.1Z" transform="translate(-100.618 -160.241)"/>
  </g>
</svg>
