<svg id="icon-users-289275" xmlns="http://www.w3.org/2000/svg" xmlns:xlink="http://www.w3.org/1999/xlink" width="24" height="22.096" viewBox="0 0 24 22.096">
  <defs>
    <clipPath id="clip-path">
      <path id="Path_2833" data-name="Path 2833" d="M139.21,158h18.436v22.1H139.21Z" transform="translate(-139.21 -158)"/>
    </clipPath>
    <clipPath id="clip-path-2">
      <path id="Path_2835" data-name="Path 2835" d="M387,199h11.443v20.018H387Z" transform="translate(-387 -199)"/>
    </clipPath>
  </defs>
  <g id="Group_1090" data-name="Group 1090" clip-path="url(#clip-path)">
    <path id="Path_2832" data-name="Path 2832" d="M155.612,176.1l-3.821-1.911a1.051,1.051,0,0,1-.584-.946v-1.352c.092-.112.188-.239.288-.38a9.152,9.152,0,0,0,1.182-2.32,1.587,1.587,0,0,0,.931-1.447v-1.6a1.6,1.6,0,0,0-.4-1.05v-2.127a3.586,3.586,0,0,0-.837-2.611,6.268,6.268,0,0,0-7.926,0,3.587,3.587,0,0,0-.837,2.611V165.1a1.6,1.6,0,0,0-.4,1.05v1.6a1.591,1.591,0,0,0,.6,1.244,8.4,8.4,0,0,0,1.4,2.9v1.323a1.056,1.056,0,0,1-.551.928l-3.569,1.947a3.606,3.606,0,0,0-1.88,3.168v1.7h18.4v-1.617a3.588,3.588,0,0,0-1.994-3.227" transform="translate(-139.207 -158.898)" fill-rule="evenodd"/>
  </g>
  <g id="Group_1091" data-name="Group 1091" transform="translate(12.557 2.078)" clip-path="url(#clip-path-2)">
    <path id="Path_2834" data-name="Path 2834" d="M397.426,215.04l-3.889-1.684a.793.793,0,0,1-.282-.308l2.61,0s.151.015.385.015a4.2,4.2,0,0,0,1.6-.283,1.174,1.174,0,0,0,.668-.763,1.187,1.187,0,0,0-.17-1.01,13.245,13.245,0,0,1-2.542-6.649c0-.048-.159-4.833-4.884-4.872a5.9,5.9,0,0,0-1.349.165,4.328,4.328,0,0,1,.266,1.83v1.893a2.184,2.184,0,0,1,.4,1.256v1.6a2.2,2.2,0,0,1-1.043,1.865,9.71,9.71,0,0,1-1.18,2.248c-.06.085-.119.165-.177.242v1.144a.449.449,0,0,0,.252.409l3.822,1.911a4.186,4.186,0,0,1,2.326,3.764v1.617h5V217.95a3.234,3.234,0,0,0-1.813-2.911" transform="translate(-387.797 -199.459)" fill-rule="evenodd"/>
  </g>
</svg>
