<svg xmlns="http://www.w3.org/2000/svg" width="23.75" height="11.875" viewBox="0 0 23.75 11.875">
  <path id="Icon_map-boating" data-name="Icon map-boating" d="M23.75,22.675a3.309,3.309,0,0,1-1.366-.3,3.229,3.229,0,0,0-2.8,0,3.22,3.22,0,0,1-2.726,0,3.228,3.228,0,0,0-2.8,0,3.3,3.3,0,0,1-1.367.3,3.25,3.25,0,0,1-1.36-.3,3.227,3.227,0,0,0-2.8,0,3.288,3.288,0,0,1-1.365.3,3.237,3.237,0,0,1-1.358-.3,3.3,3.3,0,0,0-1.4-.32,2.727,2.727,0,0,0-1.27.32,2.7,2.7,0,0,1-1.226.3V20.6a2.7,2.7,0,0,0,1.226-.3,3.071,3.071,0,0,1,1.337-.315,3.222,3.222,0,0,1,1.371.315,3.169,3.169,0,0,0,1.341.3,3.253,3.253,0,0,0,1.357-.3,3.26,3.26,0,0,1,2.8,0,3.251,3.251,0,0,0,1.359.3,3.3,3.3,0,0,0,1.366-.3,3.275,3.275,0,0,1,2.8,0,3.22,3.22,0,0,0,2.726,0,3.277,3.277,0,0,1,2.8,0,3.317,3.317,0,0,0,1.366.3v2.08Zm-5.563-8.686,4.021.32-.3-2.091-2.952-.212c-.8-.039-.683.774-.683.774l-.083,1.21Zm-7.457-.476A1.356,1.356,0,1,0,9.4,12.157,1.342,1.342,0,0,0,10.73,13.513ZM2.5,18.74a3.385,3.385,0,0,0,.49-.19,3.246,3.246,0,0,1,2.809,0,3.237,3.237,0,0,0,1.358.3,3.285,3.285,0,0,0,1.366-.3,3.231,3.231,0,0,1,2.8,0,3.25,3.25,0,0,0,1.36.3,3.29,3.29,0,0,0,1.366-.3,3.232,3.232,0,0,1,2.8,0,3.22,3.22,0,0,0,2.726,0,3.233,3.233,0,0,1,2.8,0,3.25,3.25,0,0,0,1.361.3l-.452-3.708L6.579,13.72,9.1,11.13l-1.107-.1-2.519,2.6L0,13.165c-.033,1.9,2.048,5.059,2.5,5.575Z" transform="translate(0 -10.801)"/>
</svg>
