<svg xmlns="http://www.w3.org/2000/svg" width="107.196" height="100" viewBox="0 0 107.196 100">
  <g id="icon-boat-4277241" transform="translate(-154.012 -172.848)">
    <path id="Path_2852" data-name="Path 2852" d="M190.871,572.09h-5.362a1.788,1.788,0,0,0,0,3.575h5.362a1.788,1.788,0,0,0,0-3.575Z" transform="translate(-22.561 -302.817)"/>
    <path id="Path_2853" data-name="Path 2853" d="M314.129,572.09H237.281a1.788,1.788,0,0,0,0,3.575h76.847a1.788,1.788,0,0,0,0-3.575Z" transform="translate(-61.823 -302.817)"/>
    <path id="Path_2854" data-name="Path 2854" d="M568.248,542.5h-5.362a1.787,1.787,0,0,0,0,3.574h5.362a1.787,1.787,0,0,0,0-3.574Z" transform="translate(-308.793 -280.373)"/>
    <path id="Path_2855" data-name="Path 2855" d="M248.734,432.1a1.786,1.786,0,0,0-1.788-1.787H237.82a32.262,32.262,0,0,0,21.637-30.383H221.246a3.564,3.564,0,0,0-3.36,2.377l-1.411,3.943-6.32-6.32,2.31-2.31a1.787,1.787,0,0,0-2.526-2.527L201.9,403.14a1.787,1.787,0,0,0,2.527,2.526l3.2-3.2,7.514,7.514-1.312,3.666a3.546,3.546,0,0,1-3.361,2.377H182.607v-3.575a3.574,3.574,0,0,0-3.575-3.574H159.374a3.574,3.574,0,0,0-3.575,3.574v5.362a3.575,3.575,0,0,0,3.575,3.575h9.077a12.389,12.389,0,0,0,5.945,8.936H155.8a1.787,1.787,0,0,0,0,3.574h91.145a1.786,1.786,0,0,0,1.788-1.787Zm6.237-19.659H234.436a1.787,1.787,0,0,1,0-3.574h21.893a28.907,28.907,0,0,1-1.359,3.574Z" transform="translate(0 -168.193)"/>
    <path id="Path_2856" data-name="Path 2856" d="M395.912,208.509a12.443,12.443,0,0,0,8.339-3.2,9.886,9.886,0,0,0,12.219-1.686,11.612,11.612,0,1,0,4.311-21.865c-2.437-13.146-21.646-11.192-21.267,2.266a12.509,12.509,0,1,0-3.6,24.489Z" transform="translate(-173.987)"/>
    <path id="Path_2857" data-name="Path 2857" d="M171.493,241.859a9.833,9.833,0,0,0,9.383-6.9c5.8,11.6,23.645,7.548,23.679-5.614a12.508,12.508,0,0,0-11.325-12.45c-4.493-12.234-22.675-7.663-20.675,5.362-13.681-.919-14.756,19.031-1.063,19.6Z" transform="translate(-5.864 -27.988)"/>
  </g>
</svg>
